<svg id="Capa_1" enable-background="new 0 0 512 512" height="512" viewBox="0 0 512 512" width="512" xmlns="http://www.w3.org/2000/svg"><g><g id="Filled"><path d="m512 282h-24v20h-32v-35h-33l-90-11h-30v20h-30v-35h-34v20h-30v-35h-30l-90 2h-33v20h-32v-36h-24v234h512z" fill="#d4b981"/><path d="m504.958 402-131.909-54.549-276.371-21.105-78.111-24.346h-18.567v144h512v-44z" fill="#ad935c"/><path d="m179 365v-176h-30v20h-30v-20h-30v168z" fill="#d4b981"/><path d="m149 254v25h-30v-25c0-8.284 6.716-15 15-15 8.284 0 15 6.716 15 15z" fill="#f6e23d"/><path d="m333 377v-154h30v20h30v-20h30v179z" fill="#d4b981"/><path d="m67.5 98c-17.397 0-31.5-14.103-31.5-31.5s14.103-31.5 31.5-31.5c2.118 0 4.186.212 6.186.611 6.802-16.218 22.826-27.611 41.514-27.611 14.648 0 27.657 7.003 35.874 17.839 3.15-1.058 6.519-1.639 10.026-1.639 16.495 0 30.021 12.682 31.379 28.826.339-.015.679-.026 1.021-.026 12.426 0 22.5 10.074 22.5 22.5s-10.074 22.5-22.5 22.5z" fill="#fff"/><path d="m193.5 68h-126c-11.966 0-22.374-6.673-27.706-16.5-2.419 4.46-3.794 9.569-3.794 15 0 17.397 14.103 31.5 31.5 31.5h126c12.426 0 22.5-10.074 22.5-22.5 0-5.764-2.17-11.019-5.734-15-4.12 4.602-10.103 7.5-16.766 7.5z" fill="#eaeaea"/><path d="m328.861 107.36c5.311 0 10.282 1.439 14.557 3.938 6.196-9.09 16.639-15.062 28.481-15.062 1.552 0 3.077.113 4.575.311 7.918-12.922 22.181-21.547 38.463-21.547 24.887 0 45.063 20.147 45.063 45s-20.176 45-45.063 45c-8.445 0-78.095 0-86.076 0-15.94 0-28.861-12.903-28.861-28.82s12.921-28.82 28.861-28.82z" fill="#fff"/><path d="m414.937 135h-86.076c-10.437 0-19.578-5.533-24.647-13.82-2.673 4.37-4.214 9.505-4.214 15 0 15.917 12.921 28.82 28.861 28.82h86.076c24.887 0 45.063-20.147 45.063-45 0-5.261-.913-10.307-2.574-15-6.188 17.476-22.87 30-42.489 30z" fill="#eaeaea"/><path d="m0 332h14l77 24 275 21 133 55h13v72h-512z" fill="#e0aea2"/><path d="m393 288v25h-30v-25c0-8.284 6.716-15 15-15 8.284 0 15 6.716 15 15z" fill="#f6e23d"/><path d="m0 474h512v30h-512z" fill="#c38778"/></g><g fill="#fff"><path d="m16.5 378.5h15v15h-15z"/><path d="m178 438.5h15v15h-15z"/><path d="m362 455.5h15v15h-15z"/><path d="m254 331.5h15v15h-15z"/><path d="m27 296.5h15v15h-15z"/></g><g id="Outline"><path d="m365 496.5h147v15h-147z"/><path d="m0 496.5h350v15h-350z"/><path d="m33 452.5h84v15h-84z"/><path d="m131 395.5h42v15h-42z"/><path d="m227 405.5h36v15h-36z"/><path d="m327 408.5h61v15h-61z"/><path d="m286 445.5h23v15h-23z"/><path d="m68 419.5h23v15h-23z"/><path d="m434 445.5h25v15h-25z"/><path d="m495.5 309.5v-20h16.5v-15h-31.5v20h-17v-35h-33v-44h-45v20h-15v-20h-45v33h-30v20h-15v-35h-49v20h-15v-35h-30v-37h-45v20h-15v-20h-45v39h-33v20h-17v-36h-31.5v15h16.5v36h47v-20h18v61h-24.5v15h24.5v33.683l-66.358-20.683h-15.142v15h12.858l76.722 23.914 138.172 10.551 1.143-14.956-42.396-3.238v-122.271h15v35h45v-20h19v35h45v-20h15v38h-21.499v15h21.5v15h-41.5v15h41.5v19.886l-81.648-6.235-1.142 14.956 121.528 9.28 133.272 55.113h14.49v-15h-11.51l-69.99-28.943v-121.057h18v35zm-324 45.125-75-5.728v-152.397h15v20h45v-20h15zm244 34.729-47.738-19.741-27.262-2.082v-137.031h15v20h45v-20h15z"/><path d="m134 231.5c-12.407 0-22.5 10.093-22.5 22.5v32.5h45v-32.5c0-12.407-10.093-22.5-22.5-22.5zm7.5 40h-15v-17.5c0-4.136 3.364-7.5 7.5-7.5s7.5 3.364 7.5 7.5z"/><path d="m378 265.5c-12.407 0-22.5 10.093-22.5 22.5v32.5h45v-32.5c0-12.407-10.093-22.5-22.5-22.5zm7.5 40h-15v-17.5c0-4.136 3.364-7.5 7.5-7.5s7.5 3.364 7.5 7.5z"/><path d="m67.5 105.5h49.356v-15h-49.356c-13.233 0-24-10.767-24-24s10.767-24 24-24c1.579 0 3.167.157 4.721.466l6.011 1.197 2.371-5.652c5.862-13.978 19.442-23.011 34.597-23.011 11.834 0 22.731 5.42 29.898 14.871l3.255 4.293 5.107-1.715c2.469-.829 5.04-1.249 7.639-1.249 12.369 0 22.87 9.644 23.905 21.955l.604 7.186 7.204-.322c.228-.01.457-.019.687-.019 8.271 0 15 6.729 15 15s-6.729 15-15 15h-61.644v15h61.645c16.542 0 30-13.458 30-30 0-14.713-10.647-26.987-24.641-29.521-4.373-16.851-19.863-29.279-37.759-29.279-2.464 0-4.912.232-7.32.693-9.922-10.795-23.722-16.893-38.58-16.893-19.282 0-36.743 10.445-45.926 27.041-.591-.027-1.183-.041-1.774-.041-21.505 0-39 17.495-39 39s17.495 39 39 39z"/><path d="m328.861 172.5h32.698v-15h-32.698c-11.778 0-21.361-9.564-21.361-21.32s9.583-21.32 21.361-21.32c3.788 0 7.512 1.007 10.771 2.913l6.041 3.532 3.941-5.782c5.031-7.38 13.361-11.786 22.284-11.786 1.149 0 2.356.083 3.588.247l4.833.641 2.548-4.158c6.894-11.25 18.881-17.966 32.068-17.966 20.712 0 37.563 16.822 37.563 37.5 0 2.218-.205 4.387-.577 6.5h-32.921v15h26.685c-6.801 9.665-18.045 16-30.749 16h-38.378v15h38.378c28.983 0 52.563-23.551 52.563-52.5s-23.58-52.5-52.563-52.5c-16.874 0-32.344 7.86-42.239 21.244-.268-.005-.534-.008-.798-.008-11.716 0-22.775 4.879-30.646 13.299-3.956-1.433-8.151-2.175-12.392-2.175-20.049 0-36.361 16.293-36.361 36.32s16.312 36.319 36.361 36.319z"/></g></g></svg>